<svg width="1587" height="380" viewBox="0 0 1587 380" fill="none" xmlns="http://www.w3.org/2000/svg">
<path d="M83.7308 190C190.577 48 297.423 48 404.269 190M83.7308 190C190.577 332 297.423 332 404.269 190M83.7308 190L59.5 154.5C190.09 12.5 303.359 12.5 422.077 154.5L475.5 225.5M404.269 190L430.5 225.5C299.91 367.5 184.641 367.5 65.9231 225.5L12.5 154.5M12.5 154.5V225.5C166.833 414.833 321.167 414.833 475.5 225.5M12.5 154.5C166.833 -34.8333 321.167 -34.8333 475.5 154.5V225.5" stroke="black" stroke-width="25" stroke-linecap="round" stroke-linejoin="round"/>
<path d="M671.914 257.5H633.242L588.809 194.609L574.453 209.355V257.5H544.863V113.555H574.453V172.832L630.02 113.555H668.887L609.902 172.832L671.914 257.5ZM774.746 257.5V193.242H718.496V257.5H688.711V113.555H718.496V168.438H774.746V113.555H804.629V257.5H774.746ZM917.715 227.91H864.688L854.727 257.5H823.281L874.648 113.555H908.633L959.609 257.5H926.992L917.715 227.91ZM909.316 203.105L891.348 146.465L872.793 203.105H909.316ZM1039.1 201.055H1008.05V257.5H978.652V113.555H1049.26C1059.35 113.75 1067.1 114.987 1072.5 117.266C1077.97 119.544 1082.59 122.897 1086.37 127.324C1089.49 130.97 1091.97 135.007 1093.79 139.434C1095.61 143.861 1096.52 148.906 1096.52 154.57C1096.52 161.406 1094.8 168.145 1091.35 174.785C1087.9 181.361 1082.2 186.016 1074.26 188.75C1080.9 191.419 1085.59 195.228 1088.32 200.176C1091.12 205.059 1092.52 212.546 1092.52 222.637V232.305C1092.52 238.88 1092.78 243.34 1093.3 245.684C1094.08 249.395 1095.9 252.129 1098.77 253.887V257.5H1065.66C1064.75 254.31 1064.1 251.738 1063.71 249.785C1062.93 245.749 1062.51 241.615 1062.44 237.383L1062.25 224.004C1062.12 214.824 1060.42 208.704 1057.17 205.645C1053.98 202.585 1047.96 201.055 1039.1 201.055ZM1057.36 174.883C1063.35 172.148 1066.35 166.745 1066.35 158.672C1066.35 149.948 1063.45 144.089 1057.66 141.094C1054.4 139.401 1049.52 138.555 1043.01 138.555H1008.05V177.227H1042.13C1048.9 177.227 1053.98 176.445 1057.36 174.883ZM1183.63 201.055H1152.58V257.5H1123.18V113.555H1193.79C1203.88 113.75 1211.63 114.987 1217.03 117.266C1222.5 119.544 1227.12 122.897 1230.9 127.324C1234.02 130.97 1236.5 135.007 1238.32 139.434C1240.14 143.861 1241.05 148.906 1241.05 154.57C1241.05 161.406 1239.33 168.145 1235.88 174.785C1232.43 181.361 1226.73 186.016 1218.79 188.75C1225.43 191.419 1230.12 195.228 1232.85 200.176C1235.65 205.059 1237.05 212.546 1237.05 222.637V232.305C1237.05 238.88 1237.31 243.34 1237.83 245.684C1238.61 249.395 1240.44 252.129 1243.3 253.887V257.5H1210.2C1209.28 254.31 1208.63 251.738 1208.24 249.785C1207.46 245.749 1207.04 241.615 1206.97 237.383L1206.78 224.004C1206.65 214.824 1204.95 208.704 1201.7 205.645C1198.51 202.585 1192.49 201.055 1183.63 201.055ZM1201.89 174.883C1207.88 172.148 1210.88 166.745 1210.88 158.672C1210.88 149.948 1207.98 144.089 1202.19 141.094C1198.93 139.401 1194.05 138.555 1187.54 138.555H1152.58V177.227H1186.66C1193.43 177.227 1198.51 176.445 1201.89 174.883ZM1330.7 261.504C1310.13 261.504 1294.41 255.905 1283.54 244.707C1268.95 230.97 1261.66 211.178 1261.66 185.332C1261.66 158.965 1268.95 139.173 1283.54 125.957C1294.41 114.759 1310.13 109.16 1330.7 109.16C1351.28 109.16 1367 114.759 1377.87 125.957C1392.39 139.173 1399.65 158.965 1399.65 185.332C1399.65 211.178 1392.39 230.97 1377.87 244.707C1367 255.905 1351.28 261.504 1330.7 261.504ZM1359.12 222.832C1366.09 214.043 1369.57 201.543 1369.57 185.332C1369.57 169.186 1366.05 156.719 1359.02 147.93C1352.06 139.076 1342.62 134.648 1330.7 134.648C1318.79 134.648 1309.28 139.043 1302.19 147.832C1295.09 156.621 1291.54 169.121 1291.54 185.332C1291.54 201.543 1295.09 214.043 1302.19 222.832C1309.28 231.621 1318.79 236.016 1330.7 236.016C1342.62 236.016 1352.09 231.621 1359.12 222.832ZM1474.94 236.699C1482.04 236.699 1487.8 235.918 1492.23 234.355C1500.62 231.361 1504.82 225.794 1504.82 217.656C1504.82 212.904 1502.74 209.225 1498.57 206.621C1494.41 204.082 1487.86 201.836 1478.95 199.883L1463.71 196.465C1448.74 193.079 1438.39 189.401 1432.66 185.43C1422.96 178.789 1418.11 168.405 1418.11 154.277C1418.11 141.387 1422.79 130.677 1432.17 122.148C1441.54 113.62 1455.31 109.355 1473.48 109.355C1488.65 109.355 1501.57 113.392 1512.25 121.465C1522.99 129.473 1528.62 141.126 1529.14 156.426H1500.23C1499.71 147.767 1495.94 141.615 1488.91 137.969C1484.22 135.56 1478.39 134.355 1471.43 134.355C1463.68 134.355 1457.49 135.918 1452.87 139.043C1448.25 142.168 1445.94 146.53 1445.94 152.129C1445.94 157.272 1448.22 161.113 1452.77 163.652C1455.7 165.345 1461.95 167.331 1471.52 169.609L1496.33 175.566C1507.2 178.171 1515.4 181.654 1520.94 186.016C1529.53 192.786 1533.83 202.585 1533.83 215.41C1533.83 228.561 1528.78 239.499 1518.69 248.223C1508.67 256.882 1494.47 261.211 1476.11 261.211C1457.36 261.211 1442.62 256.947 1431.88 248.418C1421.13 239.824 1415.76 228.04 1415.76 213.066H1444.47C1445.38 219.642 1447.17 224.557 1449.84 227.812C1454.73 233.737 1463.09 236.699 1474.94 236.699Z" fill="black"/>
</svg>
